<?xml version="1.0" encoding="UTF-8"?>
<svg xmlns="http://www.w3.org/2000/svg" version="1.1" xmlns:xlink="http://www.w3.org/1999/xlink" viewBox="0 0 500 200">
  <defs>
    <style>
      .cls-1 {
        fill: #231f20;
      }

      .cls-2 {
        fill: url(#linear-gradient);
      }
    </style>
    <linearGradient id="linear-gradient" x1="250" y1="193.53" x2="250" y2="6.47" gradientUnits="userSpaceOnUse">
      <stop offset="0" stop-color="#fffef4"/>
      <stop offset=".54" stop-color="#fff"/>
      <stop offset="1" stop-color="#fffef4"/>
    </linearGradient>
  </defs>
  <!-- Generator: Adobe Illustrator 28.7.1, SVG Export Plug-In . SVG Version: 1.2.0 Build 142)  -->
  <g>
    <g id="Outer">
      <g>
        <path class="cls-2" d="M250,193.53c-128.49,0-233.03-41.96-233.03-93.53S121.51,6.47,250,6.47s233.03,41.96,233.03,93.53-104.54,93.53-233.03,93.53Z"/>
        <path d="M250,7.97c62.27,0,120.76,9.81,164.71,27.61,21.19,8.58,37.78,18.54,49.31,29.59,11.62,11.13,17.51,22.84,17.51,34.82s-5.89,23.69-17.51,34.82c-11.54,11.05-28.13,21.01-49.31,29.59-43.95,17.81-102.44,27.61-164.71,27.61s-120.76-9.81-164.71-27.61c-21.19-8.58-37.78-18.54-49.31-29.59-11.62-11.13-17.51-22.84-17.51-34.82s5.89-23.69,17.51-34.82c11.54-11.05,28.13-21.01,49.31-29.59C129.24,17.78,187.73,7.97,250,7.97M250,4.97C120.47,4.97,15.47,47.52,15.47,100s105,95.03,234.53,95.03,234.53-42.54,234.53-95.03S379.53,4.97,250,4.97h0Z"/>
      </g>
      <path d="M250,13.89c121.86,0,221,38.63,221,86.11s-99.14,86.11-221,86.11S29,147.48,29,100,128.14,13.89,250,13.89M250,13.14C127.53,13.14,28.25,52.03,28.25,100s99.28,86.86,221.75,86.86,221.75-38.89,221.75-86.86S372.47,13.14,250,13.14h0Z"/>
    </g>
    <g id="GRANDAD">
      <g>
        <path d="M108.15,100.43h-9.91c-.61,0-1.06.14-1.37.41-.3.28-.55.76-.75,1.47h-.94v-9.35h.94c.2.73.45,1.22.75,1.49.3.26.76.4,1.37.4h19.04v.94c-.7.2-1.18.45-1.46.77s-.42.77-.42,1.38v8.24c0,.61.14,1.07.41,1.38.27.31.76.57,1.48.76v.74c-7.62,4.35-15.01,6.53-22.17,6.53-6.49,0-11.78-1.54-15.88-4.62-5.15-3.88-7.73-9.28-7.73-16.18,0-6.43,2.29-11.55,6.88-15.36,4.35-3.61,10.14-5.41,17.36-5.41,2.29,0,4.46.21,6.49.63,2.03.42,4.34,1.13,6.93,2.13,1.33.53,2.28.79,2.85.79.41,0,.89-.23,1.44-.68l.82.44-4.72,9.62-.85-.44c-.02-.64-.11-1.11-.26-1.39-.16-.28-.51-.63-1.06-1.04-1.2-.9-2.95-1.66-5.26-2.3s-4.5-.95-6.56-.95c-4.19,0-7.67,1.18-10.44,3.53-3.12,2.67-4.68,6.18-4.68,10.55s1.52,7.65,4.56,10.26c2.78,2.39,6.45,3.58,11,3.58,2.22,0,4.4-.25,6.56-.76s4.02-1.21,5.59-2.09v-5.47Z"/>
        <path d="M133.16,101.34v10.51c0,.61.14,1.07.41,1.39.27.32.77.59,1.47.81v.82h-11.65v-.82c.69-.18,1.17-.43,1.46-.77.28-.33.43-.8.43-1.41v-26.95c0-.61-.14-1.07-.41-1.38-.27-.31-.77-.58-1.47-.79v-.82h21.59c2.8,0,4.94.14,6.41.43,1.47.28,2.78.8,3.94,1.54,2.37,1.55,3.56,4.08,3.56,7.59,0,2.67-.73,4.75-2.19,6.25-1.46,1.5-3.82,2.58-7.08,3.25l6.24,8.69c1.14,1.61,2.04,2.7,2.72,3.27s1.45.94,2.31,1.1v.82h-13.86v-.82c1.02-.27,1.53-.71,1.53-1.32,0-.43-.31-1.09-.94-1.97l-6.58-9.42h-7.89ZM133.16,95.37h11.88c1.8,0,3.14-.2,4-.59,1.22-.53,1.82-1.58,1.82-3.15,0-1.39-.43-2.36-1.28-2.91-.85-.55-2.37-.82-4.54-.82h-11.88v7.47Z"/>
        <path d="M191.21,106.64h-15.15l-1.71,3.59c-.41.86-.62,1.54-.62,2.03,0,.94.63,1.54,1.88,1.79v.82h-12.11v-.82c.75-.12,1.3-.34,1.66-.68.36-.33.79-.99,1.28-1.97l12.03-24.36c.45-.92.68-1.73.68-2.41,0-.8-.55-1.43-1.65-1.88v-.82h12.8v.82c-1.08.43-1.62,1.1-1.62,2,0,.65.25,1.44.74,2.38l12.47,23.62c.69,1.28,1.23,2.11,1.62,2.49.39.38.99.65,1.79.8v.82h-13.46v-.82c1.27-.21,1.91-.81,1.91-1.79,0-.61-.25-1.36-.74-2.26l-1.82-3.37ZM188.84,102.02l-5.4-10.6-5.14,10.6h10.53Z"/>
        <path d="M217.11,93.16v18.68c0,.61.14,1.08.43,1.41.28.33.77.6,1.46.79v.82h-10.94v-.82c.69-.18,1.17-.43,1.46-.77.28-.33.43-.8.43-1.41v-26.95c0-.61-.14-1.07-.41-1.38-.27-.31-.77-.58-1.47-.79v-.82h12.65v.82c-.86.22-1.29.6-1.29,1.15,0,.47.31,1.02.94,1.65l17.68,17.53v-18.15c0-.61-.14-1.07-.41-1.4s-.76-.58-1.47-.78v-.82h10.94v.82c-.71.2-1.2.46-1.47.78-.27.32-.41.79-.41,1.4v26.92c0,.61.14,1.07.41,1.4.27.32.76.59,1.47.81v.82h-11.8v-.82c.86-.17,1.29-.54,1.29-1.08,0-.27-.12-.55-.35-.85s-.77-.87-1.62-1.72l-17.5-17.24Z"/>
        <path d="M254.74,111.87v-26.95c0-.61-.14-1.07-.41-1.38-.27-.31-.76-.58-1.47-.79v-.82h19.33c4.02,0,7.19.5,9.5,1.5,3.25,1.41,5.6,3.75,7.03,7,1,2.28,1.5,4.93,1.5,7.97,0,5.63-1.68,9.9-5.03,12.8-1.51,1.29-3.29,2.23-5.34,2.81-2.05.58-4.6.87-7.66.87h-19.33v-.82c.69-.18,1.17-.43,1.46-.77.28-.33.43-.8.43-1.41ZM262.62,108.9h8.41c3.86,0,6.67-.88,8.41-2.65,1.82-1.84,2.74-4.46,2.74-7.85s-.91-6.01-2.74-7.85c-.9-.92-2.02-1.59-3.35-2.02-1.33-.42-3.02-.63-5.06-.63h-8.41v21Z"/>
        <path d="M320.21,106.64h-15.15l-1.71,3.59c-.41.86-.62,1.54-.62,2.03,0,.94.63,1.54,1.88,1.79v.82h-12.11v-.82c.75-.12,1.3-.34,1.66-.68.36-.33.79-.99,1.28-1.97l12.03-24.36c.45-.92.68-1.73.68-2.41,0-.8-.55-1.43-1.65-1.88v-.82h12.8v.82c-1.08.43-1.62,1.1-1.62,2,0,.65.25,1.44.74,2.38l12.47,23.62c.69,1.28,1.23,2.11,1.62,2.49s.99.65,1.79.8v.82h-13.46v-.82c1.27-.21,1.91-.81,1.91-1.79,0-.61-.25-1.36-.74-2.26l-1.82-3.37ZM317.84,102.02l-5.4-10.6-5.14,10.6h10.53Z"/>
        <path d="M338.93,111.87v-26.95c0-.61-.14-1.07-.41-1.38-.27-.31-.76-.58-1.47-.79v-.82h19.33c4.02,0,7.19.5,9.5,1.5,3.25,1.41,5.6,3.75,7.03,7,1,2.28,1.5,4.93,1.5,7.97,0,5.63-1.68,9.9-5.03,12.8-1.51,1.29-3.29,2.23-5.34,2.81-2.05.58-4.6.87-7.66.87h-19.33v-.82c.69-.18,1.17-.43,1.46-.77.28-.33.43-.8.43-1.41ZM346.82,108.9h8.41c3.86,0,6.67-.88,8.41-2.65,1.82-1.84,2.74-4.46,2.74-7.85s-.91-6.01-2.74-7.85c-.9-.92-2.02-1.59-3.35-2.02-1.33-.42-3.02-.63-5.06-.63h-8.41v21Z"/>
        <path d="M382.35,90.28c1.61-1.04,2.77-2.06,3.47-3.06s1.21-2.3,1.5-3.91c-.92.24-1.61.35-2.06.35-1.29,0-2.33-.45-3.12-1.35-.79-.9-1.18-2.08-1.18-3.53s.4-2.61,1.19-3.47c.79-.86,1.85-1.29,3.16-1.29,1.59,0,2.87.63,3.84,1.9.97,1.26,1.46,2.93,1.46,4.99,0,4.29-2.29,8.06-6.85,11.3l-1.41-1.91Z"/>
        <path d="M429.6,84.9l-3.97,7.68-.71-.38c0-.65-.21-1.16-.62-1.53-1.12-1-2.76-1.82-4.94-2.47-2.18-.65-4.38-.97-6.62-.97-1.9,0-3.59.26-5.06.79-2.12.76-3.18,1.87-3.18,3.32,0,.96.51,1.64,1.53,2.04,1.02.4,2.99.72,5.91.96l4.65.35c4.06.31,7.15,1.1,9.27,2.35,1.18.71,2.15,1.65,2.91,2.82.96,1.47,1.44,3.13,1.44,4.97,0,3.35-1.51,6-4.53,7.94-2.88,1.86-6.79,2.79-11.71,2.79s-9.76-1.05-14.39-3.15c-.31-.14-.58-.21-.79-.21-.39,0-.75.24-1.09.71l-.74-.29,3.38-8.06.74.29v.24c0,.51.2.94.59,1.29.98.86,2.68,1.61,5.09,2.25,2.41.64,4.8.96,7.15.96,2.08,0,3.94-.27,5.59-.82,2.04-.67,3.06-1.75,3.06-3.24,0-1.2-.71-2.03-2.12-2.5-.94-.31-2.64-.58-5.09-.79l-4.62-.38c-2.49-.2-4.39-.45-5.71-.76-1.31-.31-2.46-.77-3.44-1.38-1.26-.78-2.24-1.85-2.94-3.21-.71-1.35-1.06-2.83-1.06-4.44,0-3.61,1.55-6.36,4.65-8.27,2.82-1.73,6.32-2.59,10.47-2.59,2.25,0,4.36.25,6.31.75,1.95.5,4.28,1.38,6.99,2.63.8.37,1.36.56,1.68.56s.71-.22,1.21-.65l.71.38Z"/>
      </g>
      <g>
        <path class="cls-1" d="M435.79,80.64v4.4c0,.11.03.2.08.26.05.06.14.11.27.15v.15h-2.14v-.15c.13-.03.21-.08.27-.14.05-.06.08-.15.08-.26v-4.4h-1.78c-.12,0-.2.03-.26.08-.06.05-.11.14-.14.27h-.15v-1.79h.15c.03.13.08.22.14.27s.15.08.26.08h5.02c.12,0,.2-.02.26-.08.06-.05.11-.14.14-.27h.15v1.79h-.15c-.04-.13-.08-.22-.14-.27s-.15-.08-.26-.08h-1.78Z"/>
        <path class="cls-1" d="M442.61,85.6l-2.21-3.98v3.42c0,.11.02.2.08.26s.14.11.27.15v.15h-2.01v-.15c.13-.03.22-.08.27-.14.05-.06.08-.15.08-.26v-4.95c0-.11-.02-.2-.08-.26-.05-.06-.14-.11-.27-.14v-.15h2.56v.15c-.17.05-.25.16-.25.31s.06.33.18.54l1.51,2.74,1.52-2.7c.17-.28.26-.49.26-.6,0-.15-.09-.24-.26-.28v-.15h2.49v.15c-.13.04-.22.08-.27.14-.05.06-.08.15-.08.26v4.95c0,.11.02.2.08.26.05.06.14.11.27.15v.15h-2.14v-.15c.13-.03.22-.08.27-.14.05-.06.08-.15.08-.26v-3.43l-2.34,3.98Z"/>
      </g>
    </g>
    <g id="Fork">
      <g>
        <path d="M343.58,34.69c-29.47-6.8-75.26-13.68-130.55-7.08-49.91,5.95-89.42,20.72-115.73,32.99-.9.42-1.92.39-2.79-.08l-4.19-2.26c-2.35-1.27-2.15-4.71.34-5.67,28.19-10.89,65.2-22.01,109.47-27.5,59.61-7.39,109.88-1.77,144.59,4.93"/>
        <g>
          <path d="M343.91,39.83s-.68,6.39,10.3,10.08c11.14,3.74,42.71,10.66,42.86,9.57l1.05-1.89c-.08.34-51.03-5.37-46.61-15.84l-7.6-1.93Z"/>
          <path d="M353.8,38.4l-9.11-2.03-.47,2.12,8.52,2.6c8.4,9.27,46.05,13.56,46.05,13.56l1-2.49c-32.72.45-45.78-12.29-45.98-13.75Z"/>
          <path d="M355.73,35.15l-10.27-2.29-.47,2.12,9.67,2.85c12.7,9.75,46.49,13.06,45.78,12.32l1-2.49c-32.2,1.03-45.63-11.46-45.72-12.51Z"/>
          <path d="M357.48,31.88c-7.57-4.24-11.35-1.97-11.35-1.97l-.47,2.12,10.64,2.2c12.7,9.75,46.24,12.5,45.53,11.76l1-2.49c-32.2,1.03-44.97-10.44-45.35-11.62Z"/>
        </g>
      </g>
    </g>
    <g id="Spoon">
      <g>
        <path d="M167.48,164.46c29.47,6.8,75.26,13.68,130.55,7.08,49.91-5.95,89.42-20.72,115.73-32.99.9-.42,1.92-.39,2.79.08l4.19,2.26c2.35,1.27,2.15,4.71-.34,5.67-28.19,10.89-65.2,22.01-109.47,27.5-59.61,7.39-109.88,1.77-144.59-4.93"/>
        <path d="M166.73,164.61c-15.35-.72-24.52-8.04-30.85-11.24-11.13-5.63-16.34-6.53-26.79-8.28-.92-.15-2.65-.42-3.56.34-2.98,2.52,4.47,14.89,14.02,20.69,17.19,10.42,42.96,4.07,45.83,2.97.64-1.64.7-2.85,1.34-4.49Z"/>
      </g>
    </g>
  </g>
</svg>