<?xml version="1.0" encoding="UTF-8"?>
<svg xmlns="http://www.w3.org/2000/svg" version="1.1" viewBox="0 0 307.4 200">
  <!-- Generator: Adobe Illustrator 28.7.1, SVG Export Plug-In . SVG Version: 1.2.0 Build 142)  -->
  <g>
    <g id="Layer_1">
      <path d="M235.31,63.38c-.72-2.4-9.51-28.9-29.06-33.09-19.77-4.23-43.73,11.89-47.84,38.9-4.11-27.01-28.08-43.13-47.84-38.9-19.55,4.18-28.34,30.69-29.06,33.09-11.68,38.89,25.34,82.96,52.11,108.62,1.93-2.23,3.86-4.45,5.79-6.68-40.26-36.91-60.34-77.03-48.29-101.94,4.02-8.31,14.09-20.05,26.83-20.12,13.88-.08,28.08,13.72,33.53,34.88h12.07c3.53-22.57,19.72-36.76,33.53-35.55,13.02,1.14,21.78,15.76,24.82,26.16,4.25,14.55-.42,28.74-10.06,46.95-9.6,18.12-26.87,45.4-57.74,74.4,2.14,1.74,3.65,2.9,4.31,3.4,6.42-4.89,94.03-73.08,76.9-130.11Z"/>
      <path d="M294.16,6.71c-9.08-2.81-32.16,24.43-26.16,44.94.99,3.4,2.64,6.1,4.28,8.2-70.37,122.6-59.78,127.92-59.78,127.92,5.7,8.22,12.07,4.02,12.07,4.02,8.89-7.62,50.88-118.73,55.28-130.44,5.57-.57,9.08-2.54,10.95-3.84,17.04-11.88,12.47-47.98,3.35-50.8Z"/>
      <path d="M9.49,20.2l19.47,41.76c.3.65,1.35.8,2.34.34s1.55-1.36,1.24-2.01L13.08,18.53l4.42-2.06,19.47,41.76c.3.65,1.35.8,2.34.34s1.55-1.36,1.24-2.01L21.08,14.8l4.73-2.21,19.47,41.76c.3.65,1.35.8,2.34.34s1.55-1.36,1.24-2.01L29.41,10.92l4.09-1.91,19.98,42.86c1.17,2.5-1.4,6.31-6.06,9.59,69.35,121.03,58.85,126.31,58.85,126.31-5.7,8.22-12.07,4.02-12.07,4.02-8.27-7.09-45.14-103.63-53.83-126.57-7.08,2.83-13.59,2.83-15.02-.23L5.37,22.12l4.12-1.92Z"/>
    </g>
  </g>
</svg>